<mxfile host="app.diagrams.net" modified="2024-03-17T13:40:00.131Z" agent="Mozilla/5.0 (Windows NT 10.0; Win64; x64) AppleWebKit/537.36 (KHTML, like Gecko) Chrome/122.0.0.0 Safari/537.36" etag="n-JsR8-NvruVR8KMC6Br" version="24.0.7" type="device">
  <diagram name="Page-1" id="mslguY1sa0JDOG_Rp0if">
    <mxGraphModel dx="2049" dy="1054" grid="1" gridSize="10" guides="1" tooltips="1" connect="1" arrows="1" fold="1" page="1" pageScale="1" pageWidth="850" pageHeight="1100" math="0" shadow="0">
      <root>
        <mxCell id="0" />
        <mxCell id="1" parent="0" />
        <mxCell id="61TVQZhpR9lag6zA1mDb-24" value="" style="edgeStyle=orthogonalEdgeStyle;rounded=0;orthogonalLoop=1;jettySize=auto;html=1;" edge="1" parent="1" source="61TVQZhpR9lag6zA1mDb-1" target="61TVQZhpR9lag6zA1mDb-23">
          <mxGeometry relative="1" as="geometry" />
        </mxCell>
        <mxCell id="61TVQZhpR9lag6zA1mDb-1" value="" style="rounded=1;whiteSpace=wrap;html=1;fillColor=#fff2cc;strokeColor=#d6b656;" vertex="1" parent="1">
          <mxGeometry x="110" y="120" width="590" height="390" as="geometry" />
        </mxCell>
        <mxCell id="61TVQZhpR9lag6zA1mDb-10" value="" style="edgeStyle=orthogonalEdgeStyle;rounded=0;orthogonalLoop=1;jettySize=auto;html=1;" edge="1" parent="1" source="61TVQZhpR9lag6zA1mDb-2" target="61TVQZhpR9lag6zA1mDb-9">
          <mxGeometry relative="1" as="geometry" />
        </mxCell>
        <mxCell id="61TVQZhpR9lag6zA1mDb-18" style="edgeStyle=orthogonalEdgeStyle;rounded=0;orthogonalLoop=1;jettySize=auto;html=1;entryX=0;entryY=0.5;entryDx=0;entryDy=0;" edge="1" parent="1" source="61TVQZhpR9lag6zA1mDb-2" target="61TVQZhpR9lag6zA1mDb-9">
          <mxGeometry relative="1" as="geometry" />
        </mxCell>
        <mxCell id="61TVQZhpR9lag6zA1mDb-19" style="edgeStyle=orthogonalEdgeStyle;rounded=0;orthogonalLoop=1;jettySize=auto;html=1;" edge="1" parent="1" source="61TVQZhpR9lag6zA1mDb-2" target="61TVQZhpR9lag6zA1mDb-9">
          <mxGeometry relative="1" as="geometry" />
        </mxCell>
        <mxCell id="61TVQZhpR9lag6zA1mDb-2" value="Snowflake DB" style="shape=cylinder3;whiteSpace=wrap;html=1;boundedLbl=1;backgroundOutline=1;size=15;fillColor=#f8cecc;strokeColor=#b85450;" vertex="1" parent="1">
          <mxGeometry x="180" y="180" width="90" height="100" as="geometry" />
        </mxCell>
        <mxCell id="61TVQZhpR9lag6zA1mDb-8" value="" style="edgeStyle=orthogonalEdgeStyle;rounded=0;orthogonalLoop=1;jettySize=auto;html=1;" edge="1" parent="1" source="61TVQZhpR9lag6zA1mDb-3" target="61TVQZhpR9lag6zA1mDb-2">
          <mxGeometry relative="1" as="geometry" />
        </mxCell>
        <mxCell id="61TVQZhpR9lag6zA1mDb-3" value="DBT Core" style="whiteSpace=wrap;html=1;fillColor=#f8cecc;strokeColor=#b85450;" vertex="1" parent="1">
          <mxGeometry x="165" y="310" width="120" height="60" as="geometry" />
        </mxCell>
        <mxCell id="61TVQZhpR9lag6zA1mDb-17" value="" style="rounded=0;whiteSpace=wrap;html=1;dashed=1;fillColor=#d5e8d4;strokeColor=#82b366;" vertex="1" parent="1">
          <mxGeometry x="320" y="180" width="350" height="220" as="geometry" />
        </mxCell>
        <mxCell id="61TVQZhpR9lag6zA1mDb-7" value="" style="edgeStyle=orthogonalEdgeStyle;rounded=0;orthogonalLoop=1;jettySize=auto;html=1;" edge="1" parent="1" source="61TVQZhpR9lag6zA1mDb-5" target="61TVQZhpR9lag6zA1mDb-3">
          <mxGeometry relative="1" as="geometry" />
        </mxCell>
        <mxCell id="61TVQZhpR9lag6zA1mDb-5" value="Dataset" style="rounded=1;whiteSpace=wrap;html=1;fillColor=#f8cecc;strokeColor=#b85450;" vertex="1" parent="1">
          <mxGeometry x="165" y="410" width="120" height="60" as="geometry" />
        </mxCell>
        <mxCell id="61TVQZhpR9lag6zA1mDb-13" style="edgeStyle=orthogonalEdgeStyle;rounded=0;orthogonalLoop=1;jettySize=auto;html=1;" edge="1" parent="1" source="61TVQZhpR9lag6zA1mDb-9">
          <mxGeometry relative="1" as="geometry">
            <mxPoint x="270" y="230" as="targetPoint" />
          </mxGeometry>
        </mxCell>
        <mxCell id="61TVQZhpR9lag6zA1mDb-9" value="DBT Core" style="whiteSpace=wrap;html=1;fillColor=#fff2cc;strokeColor=#d6b656;" vertex="1" parent="1">
          <mxGeometry x="365" y="200" width="120" height="60" as="geometry" />
        </mxCell>
        <mxCell id="61TVQZhpR9lag6zA1mDb-11" value="DBT Core" style="whiteSpace=wrap;html=1;fillColor=#fff2cc;strokeColor=#d6b656;" vertex="1" parent="1">
          <mxGeometry x="520" y="200" width="120" height="60" as="geometry" />
        </mxCell>
        <mxCell id="61TVQZhpR9lag6zA1mDb-12" value="&lt;font style=&quot;font-size: 20px;&quot;&gt;+&lt;/font&gt;" style="text;html=1;align=center;verticalAlign=middle;whiteSpace=wrap;rounded=0;" vertex="1" parent="1">
          <mxGeometry x="470" y="215" width="60" height="30" as="geometry" />
        </mxCell>
        <mxCell id="61TVQZhpR9lag6zA1mDb-14" value="SQL" style="shape=process;whiteSpace=wrap;html=1;backgroundOutline=1;fillColor=#fff2cc;strokeColor=#d6b656;" vertex="1" parent="1">
          <mxGeometry x="365" y="310" width="120" height="60" as="geometry" />
        </mxCell>
        <mxCell id="61TVQZhpR9lag6zA1mDb-16" value="YML" style="shape=process;whiteSpace=wrap;html=1;backgroundOutline=1;fillColor=#fff2cc;strokeColor=#d6b656;" vertex="1" parent="1">
          <mxGeometry x="520" y="310" width="120" height="60" as="geometry" />
        </mxCell>
        <mxCell id="61TVQZhpR9lag6zA1mDb-20" value="" style="endArrow=classic;html=1;rounded=0;exitX=1;exitY=0.61;exitDx=0;exitDy=0;exitPerimeter=0;entryX=0.017;entryY=0.69;entryDx=0;entryDy=0;entryPerimeter=0;" edge="1" parent="1" source="61TVQZhpR9lag6zA1mDb-2" target="61TVQZhpR9lag6zA1mDb-9">
          <mxGeometry width="50" height="50" relative="1" as="geometry">
            <mxPoint x="400" y="400" as="sourcePoint" />
            <mxPoint x="360" y="241" as="targetPoint" />
          </mxGeometry>
        </mxCell>
        <mxCell id="61TVQZhpR9lag6zA1mDb-21" value="&lt;font style=&quot;font-size: 21px;&quot;&gt;&lt;b&gt;&lt;i&gt;1&lt;/i&gt;&lt;/b&gt;&lt;/font&gt;" style="text;html=1;align=center;verticalAlign=middle;whiteSpace=wrap;rounded=0;fillColor=none;strokeColor=#b85450;dashed=1;dashPattern=1 4;" vertex="1" parent="1">
          <mxGeometry x="120" y="230" width="50" height="20" as="geometry" />
        </mxCell>
        <mxCell id="61TVQZhpR9lag6zA1mDb-22" value="&lt;font style=&quot;font-size: 21px;&quot;&gt;&lt;b&gt;&lt;i&gt;2&lt;/i&gt;&lt;/b&gt;&lt;/font&gt;" style="text;html=1;align=center;verticalAlign=middle;whiteSpace=wrap;rounded=0;fillColor=none;strokeColor=#b85450;dashed=1;dashPattern=1 4;" vertex="1" parent="1">
          <mxGeometry x="475" y="430" width="55" height="20" as="geometry" />
        </mxCell>
        <mxCell id="61TVQZhpR9lag6zA1mDb-23" value="" style="whiteSpace=wrap;html=1;fillColor=#f8cecc;strokeColor=#b85450;rounded=1;" vertex="1" parent="1">
          <mxGeometry x="830" y="145" width="540" height="340" as="geometry" />
        </mxCell>
        <mxCell id="61TVQZhpR9lag6zA1mDb-28" value="" style="edgeStyle=orthogonalEdgeStyle;rounded=0;orthogonalLoop=1;jettySize=auto;html=1;" edge="1" parent="1" source="61TVQZhpR9lag6zA1mDb-26" target="61TVQZhpR9lag6zA1mDb-27">
          <mxGeometry relative="1" as="geometry" />
        </mxCell>
        <mxCell id="61TVQZhpR9lag6zA1mDb-26" value="Github" style="shape=parallelogram;perimeter=parallelogramPerimeter;whiteSpace=wrap;html=1;fixedSize=1;fillColor=#fff2cc;strokeColor=#d6b656;" vertex="1" parent="1">
          <mxGeometry x="880" y="300" width="210" height="70" as="geometry" />
        </mxCell>
        <mxCell id="61TVQZhpR9lag6zA1mDb-27" value="Vercel" style="ellipse;whiteSpace=wrap;html=1;fillColor=#fff2cc;strokeColor=#d6b656;" vertex="1" parent="1">
          <mxGeometry x="1150" y="295" width="80" height="80" as="geometry" />
        </mxCell>
        <mxCell id="61TVQZhpR9lag6zA1mDb-31" value="&lt;font style=&quot;font-size: 20px;&quot;&gt;CI/CD&lt;/font&gt;" style="text;html=1;align=center;verticalAlign=middle;resizable=0;points=[];autosize=1;strokeColor=none;fillColor=none;fontStyle=1" vertex="1" parent="1">
          <mxGeometry x="720" y="280" width="80" height="40" as="geometry" />
        </mxCell>
      </root>
    </mxGraphModel>
  </diagram>
</mxfile>
